<?xml version="1.0" encoding="UTF-8"?>
<svg xmlns="http://www.w3.org/2000/svg" viewBox="0 0 1200 396" width="1200" height="396" role="img" aria-label="Tech stack. PROGRAMMING LANGUAGES: Python, JavaScript, TypeScript, C++, C#, C. WEB DEV and FRAMEWORKS: React, Angular, Node.js, .NET Framework, ASP.NET Core, HTML, CSS, Motion, Motion UI. BACKEND and DATABASES: REST API, MongoDB, MSSQL, Redis, Kafka, Postman. CLOUD and DEVOPS: AWS, Azure, Docker, GitHub, Git, Vercel.">
  <title>Tech Stack System Modules</title>
  <defs>
    <pattern id="grid" width="40" height="40" patternUnits="userSpaceOnUse">
      <path d="M40 0H0V40" fill="none" stroke="#ffffff" stroke-opacity="0.035" stroke-width="1"/>
    </pattern>
    <style>
      .s { font-family: "Segoe UI", -apple-system, BlinkMacSystemFont, Helvetica, Arial, sans-serif; }
      .m { font-family: ui-monospace, "SF Mono", "Cascadia Mono", "Segoe UI Mono", Menlo, Consolas, monospace; }
    </style>
  </defs>
  <clipPath id="clip"><rect x="0.5" y="0.5" width="1199" height="395" rx="16"/></clipPath>
  <g clip-path="url(#clip)">
    <rect width="1200" height="396" fill="#08090b"/>
    <rect width="1200" height="396" fill="url(#grid)"/>
    <rect x="44" y="33" width="3" height="15" rx="1.5" fill="#ff5a30"/>
    <text class="m" x="58" y="46" font-size="12.5" letter-spacing="3.2" fill="#f4f4f5">TECH STACK · SYSTEM MODULES</text>
    <text class="m" x="1156" y="46" font-size="11" letter-spacing="2" text-anchor="end" fill="#4b5563">04 MODULES</text>
    <line x1="44" y1="64" x2="1156" y2="64" stroke="#ffffff" stroke-opacity="0.07"/>
    <g><rect x="44" y="80" width="544" height="132" rx="12" fill="#10131a" stroke="#ffffff" stroke-opacity="0.08"/>
      <rect x="44" y="94" width="3" height="104" rx="1.5" fill="#ff5a30"/>
      <text class="m" x="68" y="110" font-size="10.5" letter-spacing="2.4" fill="#ff5a30">PROGRAMMING LANGUAGES</text>
      <text class="m" x="566" y="110" font-size="10.5" letter-spacing="1.5" text-anchor="end" fill="#4b5563">01</text>
      <g><rect x="68" y="130" width="85" height="26" rx="6" fill="#181c22" stroke="#ffffff" stroke-opacity="0.09"/><g transform="translate(80.00 136.00) scale(0.5833)" fill="#4B8BBE"><path d="M14.25.18l.9.2.73.26.59.3.45.32.34.34.25.34.16.33.1.3.04.26.02.2-.01.13V8.5l-.05.63-.13.55-.21.46-.26.38-.3.31-.33.25-.35.19-.35.14-.33.1-.3.07-.26.04-.21.02H8.77l-.69.05-.59.14-.5.22-.41.27-.33.32-.27.35-.2.36-.15.37-.1.35-.07.32-.04.27-.02.21v3.06H3.17l-.21-.03-.28-.07-.32-.12-.35-.18-.36-.26-.36-.36-.35-.46-.32-.59-.28-.73-.21-.88-.14-1.05-.05-1.23.06-1.22.16-1.04.24-.87.32-.71.36-.57.4-.44.42-.33.42-.24.4-.16.36-.1.32-.05.24-.01h.16l.06.01h8.16v-.83H6.18l-.01-2.75-.02-.37.05-.34.11-.31.17-.28.25-.26.31-.23.38-.2.44-.18.51-.15.58-.12.64-.1.71-.06.77-.04.84-.02 1.27.05zm-6.3 1.98l-.23.33-.08.41.08.41.23.34.33.22.41.09.41-.09.33-.22.23-.34.08-.41-.08-.41-.23-.33-.33-.22-.41-.09-.41.09zm13.09 3.95l.28.06.32.12.35.18.36.27.36.35.35.47.32.59.28.73.21.88.14 1.04.05 1.23-.06 1.23-.16 1.04-.24.86-.32.71-.36.57-.4.45-.42.33-.42.24-.4.16-.36.09-.32.05-.24.02-.16-.01h-8.22v.82h5.84l.01 2.76.02.36-.05.34-.11.31-.17.29-.25.25-.31.24-.38.2-.44.17-.51.15-.58.13-.64.09-.71.07-.77.04-.84.01-1.27-.04-1.07-.14-.9-.2-.73-.25-.59-.3-.45-.33-.34-.34-.25-.34-.16-.33-.1-.3-.04-.25-.02-.2.01-.13v-5.34l.05-.64.13-.54.21-.46.26-.38.3-.32.33-.24.35-.2.35-.14.33-.1.3-.06.26-.04.21-.02.13-.01h5.84l.69-.05.59-.14.5-.21.41-.28.33-.32.27-.35.2-.36.15-.36.1-.35.07-.32.04-.28.02-.21V6.07h2.09l.14.01zm-6.47 14.25l-.23.33-.08.41.08.41.23.33.33.23.41.08.41-.08.33-.23.23-.33.08-.41-.08-.41-.23-.33-.33-.23-.41-.08-.41.08z"/></g><text class="s" x="101" y="147.6" font-size="13" fill="#d4d4d8">Python</text></g>
      <g><rect x="161" y="130" width="108" height="26" rx="6" fill="#181c22" stroke="#ffffff" stroke-opacity="0.09"/><g transform="translate(173.04 136.00) scale(0.5833)" fill="#F7DF1E"><path d="M0 0h24v24H0V0zm22.034 18.276c-.175-1.095-.888-2.015-3.003-2.873-.736-.345-1.554-.585-1.797-1.14-.091-.33-.105-.51-.046-.705.15-.646.915-.84 1.515-.66.39.12.75.42.976.9 1.034-.676 1.034-.676 1.755-1.125-.27-.42-.404-.601-.586-.78-.63-.705-1.469-1.065-2.834-1.034l-.705.089c-.676.165-1.32.525-1.71 1.005-1.14 1.291-.811 3.541.569 4.471 1.365 1.02 3.361 1.244 3.616 2.205.24 1.17-.87 1.545-1.966 1.41-.811-.18-1.26-.586-1.755-1.336l-1.83 1.051c.21.48.45.689.81 1.109 1.74 1.756 6.09 1.666 6.871-1.004.029-.09.24-.705.074-1.65l.046.067zm-8.983-7.245h-2.248c0 1.938-.009 3.864-.009 5.805 0 1.232.063 2.363-.138 2.711-.33.689-1.18.601-1.566.48-.396-.196-.597-.466-.83-.855-.063-.105-.11-.196-.127-.196l-1.825 1.125c.305.63.75 1.172 1.324 1.517.855.51 2.004.675 3.207.405.783-.226 1.458-.691 1.811-1.411.51-.93.402-2.07.397-3.346.012-2.054 0-4.109 0-6.179l.004-.056z"/></g><text class="s" x="194" y="147.6" font-size="13" fill="#d4d4d8">JavaScript</text></g>
      <g><rect x="277" y="130" width="108" height="26" rx="6" fill="#181c22" stroke="#ffffff" stroke-opacity="0.09"/><g transform="translate(289.35 136.00) scale(0.5833)" fill="#3178C6"><path d="M1.125 0C.502 0 0 .502 0 1.125v21.75C0 23.498.502 24 1.125 24h21.75c.623 0 1.125-.502 1.125-1.125V1.125C24 .502 23.498 0 22.875 0zm17.363 9.75c.612 0 1.154.037 1.627.111a6.38 6.38 0 0 1 1.306.34v2.458a3.95 3.95 0 0 0-.643-.361 5.093 5.093 0 0 0-.717-.26 5.453 5.453 0 0 0-1.426-.2c-.3 0-.573.028-.819.086a2.1 2.1 0 0 0-.623.242c-.17.104-.3.229-.393.374a.888.888 0 0 0-.14.49c0 .196.053.373.156.529.104.156.252.304.443.444s.423.276.696.41c.273.135.582.274.926.416.47.197.892.407 1.266.628.374.222.695.473.963.753.268.279.472.598.614.957.142.359.214.776.214 1.253 0 .657-.125 1.21-.373 1.656a3.033 3.033 0 0 1-1.012 1.085 4.38 4.38 0 0 1-1.487.596c-.566.12-1.163.18-1.79.18a9.916 9.916 0 0 1-1.84-.164 5.544 5.544 0 0 1-1.512-.493v-2.63a5.033 5.033 0 0 0 3.237 1.2c.333 0 .624-.03.872-.09.249-.06.456-.144.623-.25.166-.108.29-.234.373-.38a1.023 1.023 0 0 0-.074-1.089 2.12 2.12 0 0 0-.537-.5 5.597 5.597 0 0 0-.807-.444 27.72 27.72 0 0 0-1.007-.436c-.918-.383-1.602-.852-2.053-1.405-.45-.553-.676-1.222-.676-2.005 0-.614.123-1.141.369-1.582.246-.441.58-.804 1.004-1.089a4.494 4.494 0 0 1 1.47-.629 7.536 7.536 0 0 1 1.77-.201zm-15.113.188h9.563v2.166H9.506v9.646H6.789v-9.646H3.375z"/></g><text class="s" x="310" y="147.6" font-size="13" fill="#d4d4d8">TypeScript</text></g>
      <g><rect x="394" y="130" width="67" height="26" rx="6" fill="#181c22" stroke="#ffffff" stroke-opacity="0.09"/><g transform="translate(405.66 136.00) scale(0.5833)" fill="#649AD2"><path d="M22.394 6c-.167-.29-.398-.543-.652-.69L12.926.22c-.509-.294-1.34-.294-1.848 0L2.26 5.31c-.508.293-.923 1.013-.923 1.6v10.18c0 .294.104.62.271.91.167.29.398.543.652.69l8.816 5.09c.508.293 1.34.293 1.848 0l8.816-5.09c.254-.147.485-.4.652-.69.167-.29.27-.616.27-.91V6.91c.003-.294-.1-.62-.268-.91zM12 19.11c-3.92 0-7.109-3.19-7.109-7.11 0-3.92 3.19-7.11 7.11-7.11a7.133 7.133 0 016.156 3.553l-3.076 1.78a3.567 3.567 0 00-3.08-1.78A3.56 3.56 0 008.444 12 3.56 3.56 0 0012 15.555a3.57 3.57 0 003.08-1.778l3.078 1.78A7.135 7.135 0 0112 19.11zm7.11-6.715h-.79v.79h-.79v-.79h-.79v-.79h.79v-.79h.79v.79h.79zm2.962 0h-.79v.79h-.79v-.79h-.79v-.79h.79v-.79h.79v.79h.79z"/></g><text class="s" x="427" y="147.6" font-size="13" fill="#d4d4d8">C++</text></g>
      <g><rect x="469" y="130" width="39" height="26" rx="6" fill="#181c22" stroke="#ffffff" stroke-opacity="0.09"/><text class="s" x="481" y="147.6" font-size="13" fill="#d4d4d8">C#</text></g>
      <g><rect x="68" y="164" width="54" height="26" rx="6" fill="#181c22" stroke="#ffffff" stroke-opacity="0.09"/><g transform="translate(80.00 170.00) scale(0.5833)" fill="#A8B9CC"><path d="M16.5921 9.1962s-.354-3.298-3.627-3.39c-3.2741-.09-4.9552 2.474-4.9552 6.14 0 3.6651 1.858 6.5972 5.0451 6.5972 3.184 0 3.5381-3.665 3.5381-3.665l6.1041.365s.36 3.31-2.196 5.836c-2.552 2.5241-5.6901 2.9371-7.8762 2.9201-2.19-.017-5.2261.034-8.1602-2.97-2.938-3.0101-3.436-5.9302-3.436-8.8002 0-2.8701.556-6.6702 4.047-9.5502C7.444.72 9.849 0 12.254 0c10.0422 0 10.7172 9.2602 10.7172 9.2602z"/></g><text class="s" x="101" y="181.6" font-size="13" fill="#d4d4d8">C</text></g>
    </g>
    <g><rect x="612" y="80" width="544" height="132" rx="12" fill="#10131a" stroke="#ffffff" stroke-opacity="0.08"/>
      <rect x="612" y="94" width="3" height="104" rx="1.5" fill="#ff7a4d"/>
      <text class="m" x="636" y="110" font-size="10.5" letter-spacing="2.4" fill="#ff7a4d">WEB DEV &amp; FRAMEWORKS</text>
      <text class="m" x="1134" y="110" font-size="10.5" letter-spacing="1.5" text-anchor="end" fill="#4b5563">02</text>
      <g><rect x="636" y="130" width="78" height="26" rx="6" fill="#181c22" stroke="#ffffff" stroke-opacity="0.09"/><g transform="translate(648.00 136.00) scale(0.5833)" fill="#61DAFB"><path d="M14.23 12.004a2.236 2.236 0 0 1-2.235 2.236 2.236 2.236 0 0 1-2.236-2.236 2.236 2.236 0 0 1 2.235-2.236 2.236 2.236 0 0 1 2.236 2.236zm2.648-10.69c-1.346 0-3.107.96-4.888 2.622-1.78-1.653-3.542-2.602-4.887-2.602-.41 0-.783.093-1.106.278-1.375.793-1.683 3.264-.973 6.365C1.98 8.917 0 10.42 0 12.004c0 1.59 1.99 3.097 5.043 4.03-.704 3.113-.39 5.588.988 6.38.32.187.69.275 1.102.275 1.345 0 3.107-.96 4.888-2.624 1.78 1.654 3.542 2.603 4.887 2.603.41 0 .783-.09 1.106-.275 1.374-.792 1.683-3.263.973-6.365C22.02 15.096 24 13.59 24 12.004c0-1.59-1.99-3.097-5.043-4.032.704-3.11.39-5.587-.988-6.38-.318-.184-.688-.277-1.092-.278zm-.005 1.09v.006c.225 0 .406.044.558.127.666.382.955 1.835.73 3.704-.054.46-.142.945-.25 1.44-.96-.236-2.006-.417-3.107-.534-.66-.905-1.345-1.727-2.035-2.447 1.592-1.48 3.087-2.292 4.105-2.295zm-9.77.02c1.012 0 2.514.808 4.11 2.28-.686.72-1.37 1.537-2.02 2.442-1.107.117-2.154.298-3.113.538-.112-.49-.195-.964-.254-1.42-.23-1.868.054-3.32.714-3.707.19-.09.4-.127.563-.132zm4.882 3.05c.455.468.91.992 1.36 1.564-.44-.02-.89-.034-1.345-.034-.46 0-.915.01-1.36.034.44-.572.895-1.096 1.345-1.565zM12 8.1c.74 0 1.477.034 2.202.093.406.582.802 1.203 1.183 1.86.372.64.71 1.29 1.018 1.946-.308.655-.646 1.31-1.013 1.95-.38.66-.773 1.288-1.18 1.87-.728.063-1.466.098-2.21.098-.74 0-1.477-.035-2.202-.093-.406-.582-.802-1.204-1.183-1.86-.372-.64-.71-1.29-1.018-1.946.303-.657.646-1.313 1.013-1.954.38-.66.773-1.286 1.18-1.868.728-.064 1.466-.098 2.21-.098zm-3.635.254c-.24.377-.48.763-.704 1.16-.225.39-.435.782-.635 1.174-.265-.656-.49-1.31-.676-1.947.64-.15 1.315-.283 2.015-.386zm7.26 0c.695.103 1.365.23 2.006.387-.18.632-.405 1.282-.66 1.933-.2-.39-.41-.783-.64-1.174-.225-.392-.465-.774-.705-1.146zm3.063.675c.484.15.944.317 1.375.498 1.732.74 2.852 1.708 2.852 2.476-.005.768-1.125 1.74-2.857 2.475-.42.18-.88.342-1.355.493-.28-.958-.646-1.956-1.1-2.98.45-1.017.81-2.01 1.085-2.964zm-13.395.004c.278.96.645 1.957 1.1 2.98-.45 1.017-.812 2.01-1.086 2.964-.484-.15-.944-.318-1.37-.5-1.732-.737-2.852-1.706-2.852-2.474 0-.768 1.12-1.742 2.852-2.476.42-.18.88-.342 1.356-.494zm11.678 4.28c.265.657.49 1.312.676 1.948-.64.157-1.316.29-2.016.39.24-.375.48-.762.705-1.158.225-.39.435-.788.636-1.18zm-9.945.02c.2.392.41.783.64 1.175.23.39.465.772.705 1.143-.695-.102-1.365-.23-2.006-.386.18-.63.406-1.282.66-1.933zM17.92 16.32c.112.493.2.968.254 1.423.23 1.868-.054 3.32-.714 3.708-.147.09-.338.128-.563.128-1.012 0-2.514-.807-4.11-2.28.686-.72 1.37-1.536 2.02-2.44 1.107-.118 2.154-.3 3.113-.54zm-11.83.01c.96.234 2.006.415 3.107.532.66.905 1.345 1.727 2.035 2.446-1.595 1.483-3.092 2.295-4.11 2.295-.22-.005-.406-.05-.553-.132-.666-.38-.955-1.834-.73-3.703.054-.46.142-.944.25-1.438zm4.56.64c.44.02.89.034 1.345.034.46 0 .915-.01 1.36-.034-.44.572-.895 1.095-1.345 1.565-.455-.47-.91-.993-1.36-1.565z"/></g><text class="s" x="669" y="147.6" font-size="13" fill="#d4d4d8">React</text></g>
      <g><rect x="722" y="130" width="89" height="26" rx="6" fill="#181c22" stroke="#ffffff" stroke-opacity="0.09"/><g transform="translate(734.15 136.00) scale(0.5833)" fill="#E23237"><path d="M16.712 17.711H7.288l-1.204 2.916L12 24l5.916-3.373-1.204-2.916ZM14.692 0l7.832 16.855.814-12.856L14.692 0ZM9.308 0 .662 3.999l.814 12.856L9.308 0Zm-.405 13.93h6.198L12 6.396 8.903 13.93Z"/></g><text class="s" x="755" y="147.6" font-size="13" fill="#d4d4d8">Angular</text></g>
      <g><rect x="819" y="130" width="89" height="26" rx="6" fill="#181c22" stroke="#ffffff" stroke-opacity="0.09"/><g transform="translate(831.09 136.00) scale(0.5833)" fill="#6CC24A"><path d="M11.998,24c-0.321,0-0.641-0.084-0.922-0.247l-2.936-1.737c-0.438-0.245-0.224-0.332-0.08-0.383 c0.585-0.203,0.703-0.25,1.328-0.604c0.065-0.037,0.151-0.023,0.218,0.017l2.256,1.339c0.082,0.045,0.197,0.045,0.272,0l8.795-5.076 c0.082-0.047,0.134-0.141,0.134-0.238V6.921c0-0.099-0.053-0.192-0.137-0.242l-8.791-5.072c-0.081-0.047-0.189-0.047-0.271,0 L3.075,6.68C2.99,6.729,2.936,6.825,2.936,6.921v10.15c0,0.097,0.054,0.189,0.139,0.235l2.409,1.392 c1.307,0.654,2.108-0.116,2.108-0.89V7.787c0-0.142,0.114-0.253,0.256-0.253h1.115c0.139,0,0.255,0.112,0.255,0.253v10.021 c0,1.745-0.95,2.745-2.604,2.745c-0.508,0-0.909,0-2.026-0.551L2.28,18.675c-0.57-0.329-0.922-0.945-0.922-1.604V6.921 c0-0.659,0.353-1.275,0.922-1.603l8.795-5.082c0.557-0.315,1.296-0.315,1.848,0l8.794,5.082c0.57,0.329,0.924,0.944,0.924,1.603 v10.15c0,0.659-0.354,1.273-0.924,1.604l-8.794,5.078C12.643,23.916,12.324,24,11.998,24z M19.099,13.993 c0-1.9-1.284-2.406-3.987-2.763c-2.731-0.361-3.009-0.548-3.009-1.187c0-0.528,0.235-1.233,2.258-1.233 c1.807,0,2.473,0.389,2.747,1.607c0.024,0.115,0.129,0.199,0.247,0.199h1.141c0.071,0,0.138-0.031,0.186-0.081 c0.048-0.054,0.074-0.123,0.067-0.196c-0.177-2.098-1.571-3.076-4.388-3.076c-2.508,0-4.004,1.058-4.004,2.833 c0,1.925,1.488,2.457,3.895,2.695c2.88,0.282,3.103,0.703,3.103,1.269c0,0.983-0.789,1.402-2.642,1.402 c-2.327,0-2.839-0.584-3.011-1.742c-0.02-0.124-0.126-0.215-0.253-0.215h-1.137c-0.141,0-0.254,0.112-0.254,0.253 c0,1.482,0.806,3.248,4.655,3.248C17.501,17.007,19.099,15.91,19.099,13.993z"/></g><text class="s" x="852" y="147.6" font-size="13" fill="#d4d4d8">Node.js</text></g>
      <g><rect x="916" y="130" width="145" height="26" rx="6" fill="#181c22" stroke="#ffffff" stroke-opacity="0.09"/><g transform="translate(928.03 136.00) scale(0.5833)" fill="#8A6FE8"><path d="M24 8.77h-2.468v7.565h-1.425V8.77h-2.462V7.53H24zm-6.852 7.565h-4.821V7.53h4.63v1.24h-3.205v2.494h2.953v1.234h-2.953v2.604h3.396zm-6.708 0H8.882L4.78 9.863a2.896 2.896 0 0 1-.258-.51h-.036c.032.189.048.592.048 1.21v5.772H3.157V7.53h1.659l3.965 6.32c.167.261.275.442.323.54h.024c-.04-.233-.06-.629-.06-1.185V7.529h1.372zm-8.703-.693a.868.829 0 0 1-.869.829.868.829 0 0 1-.868-.83.868.829 0 0 1 .868-.828.868.829 0 0 1 .869.829Z"/></g><text class="s" x="949" y="147.6" font-size="13" fill="#d4d4d8">.NET Framework</text></g>
      <g><rect x="636" y="164" width="131" height="26" rx="6" fill="#181c22" stroke="#ffffff" stroke-opacity="0.09"/><g transform="translate(648.00 170.00) scale(0.5833)" fill="#8A6FE8"><path d="M24 8.77h-2.468v7.565h-1.425V8.77h-2.462V7.53H24zm-6.852 7.565h-4.821V7.53h4.63v1.24h-3.205v2.494h2.953v1.234h-2.953v2.604h3.396zm-6.708 0H8.882L4.78 9.863a2.896 2.896 0 0 1-.258-.51h-.036c.032.189.048.592.048 1.21v5.772H3.157V7.53h1.659l3.965 6.32c.167.261.275.442.323.54h.024c-.04-.233-.06-.629-.06-1.185V7.529h1.372zm-8.703-.693a.868.829 0 0 1-.869.829.868.829 0 0 1-.868-.83.868.829 0 0 1 .868-.828.868.829 0 0 1 .869.829Z"/></g><text class="s" x="669" y="181.6" font-size="13" fill="#d4d4d8">ASP.NET Core</text></g>
      <g><rect x="775" y="164" width="82" height="26" rx="6" fill="#181c22" stroke="#ffffff" stroke-opacity="0.09"/><g transform="translate(786.54 170.00) scale(0.5833)" fill="#E34F26"><path d="M1.5 0h21l-1.91 21.563L11.977 24l-8.564-2.438L1.5 0zm7.031 9.75l-.232-2.718 10.059.003.23-2.622L5.412 4.41l.698 8.01h9.126l-.326 3.426-2.91.804-2.955-.81-.188-2.11H6.248l.33 4.171L12 19.351l5.379-1.443.744-8.157H8.531z"/></g><text class="s" x="808" y="181.6" font-size="13" fill="#d4d4d8">HTML</text></g>
      <g><rect x="865" y="164" width="71" height="26" rx="6" fill="#181c22" stroke="#ffffff" stroke-opacity="0.09"/><g transform="translate(876.72 170.00) scale(0.5833)" fill="#8B5FD6"><path d="M0 0v20.16A3.84 3.84 0 0 0 3.84 24h16.32A3.84 3.84 0 0 0 24 20.16V3.84A3.84 3.84 0 0 0 20.16 0Zm14.256 13.08c1.56 0 2.28 1.08 2.304 2.64h-1.608c.024-.288-.048-.6-.144-.84-.096-.192-.288-.264-.552-.264-.456 0-.696.264-.696.84-.024.576.288.888.768 1.08.72.288 1.608.744 1.92 1.296q.432.648.432 1.656c0 1.608-.912 2.592-2.496 2.592-1.656 0-2.4-1.032-2.424-2.688h1.68c0 .792.264 1.176.792 1.176.264 0 .456-.072.552-.24.192-.312.24-1.176-.048-1.512-.312-.408-.912-.6-1.32-.816q-.828-.396-1.224-.936c-.24-.36-.36-.888-.36-1.536 0-1.44.936-2.472 2.424-2.448m5.4 0c1.584 0 2.304 1.08 2.328 2.64h-1.608c0-.288-.048-.6-.168-.84-.096-.192-.264-.264-.528-.264-.48 0-.72.264-.72.84s.288.888.792 1.08c.696.288 1.608.744 1.92 1.296.264.432.408.984.408 1.656.024 1.608-.888 2.592-2.472 2.592-1.68 0-2.424-1.056-2.448-2.688h1.68c0 .744.264 1.176.792 1.176.264 0 .456-.072.552-.24.216-.312.264-1.176-.048-1.512-.288-.408-.888-.6-1.32-.816-.552-.264-.96-.576-1.2-.936s-.36-.888-.36-1.536c-.024-1.44.912-2.472 2.4-2.448m-11.031.018c.711-.006 1.419.198 1.839.63.432.432.672 1.128.648 1.992H9.336c.024-.456-.096-.792-.432-.96-.312-.144-.768-.048-.888.24-.12.264-.192.576-.168.864v3.504c0 .744.264 1.128.768 1.128a.65.65 0 0 0 .552-.264c.168-.24.192-.552.168-.84h1.776c.096 1.632-.984 2.712-2.568 2.688-1.536 0-2.496-.864-2.472-2.472v-4.032c0-.816.24-1.44.696-1.848.432-.408 1.146-.624 1.857-.63"/></g><text class="s" x="898" y="181.6" font-size="13" fill="#d4d4d8">CSS</text></g>
      <g><rect x="943" y="164" width="85" height="26" rx="6" fill="#181c22" stroke="#ffffff" stroke-opacity="0.09"/><g transform="translate(955.46 170.00) scale(0.5833)" fill="#FF5A30"><path d="M2 10.9h7.2v2H2v-2zm2.4-4h7.2v2H4.4v-2zm2.4 8h7.2v2H6.8v-2zM17.6 7.8a4.2 4.2 0 1 1 0 8.4 4.2 4.2 0 0 1 0-8.4z"/></g><text class="s" x="976" y="181.6" font-size="13" fill="#d4d4d8">Motion</text></g>
      <g><rect x="1036" y="164" width="80" height="26" rx="6" fill="#181c22" stroke="#ffffff" stroke-opacity="0.09"/><text class="s" x="1048" y="181.6" font-size="13" fill="#d4d4d8">Motion UI</text></g>
    </g>
    <g><rect x="44" y="232" width="544" height="132" rx="12" fill="#10131a" stroke="#ffffff" stroke-opacity="0.08"/>
      <rect x="44" y="246" width="3" height="104" rx="1.5" fill="#5c8a6b"/>
      <text class="m" x="68" y="262" font-size="10.5" letter-spacing="2.4" fill="#5c8a6b">BACKEND &amp; DATABASES</text>
      <text class="m" x="566" y="262" font-size="10.5" letter-spacing="1.5" text-anchor="end" fill="#4b5563">03</text>
      <g><rect x="68" y="282" width="104" height="26" rx="6" fill="#181c22" stroke="#ffffff" stroke-opacity="0.09"/><g transform="translate(80.00 288.00) scale(0.5833)" fill="#7FB99B"><path d="M9.4 3v2c-1 0-1.4.4-1.4 1.4V9c0 1.4-.7 2.4-1.9 3 1.2.6 1.9 1.6 1.9 3v2.6c0 1 .4 1.4 1.4 1.4v2C7.3 21 6 19.8 6 17.6V15c0-1-.5-1.5-1.5-1.5v-3C5.5 10.5 6 10 6 9V6.4C6 4.2 7.3 3 9.4 3zM14.6 3c2.1 0 3.4 1.2 3.4 3.4V9c0 1 .5 1.5 1.5 1.5v3c-1 0-1.5.5-1.5 1.5v2.6c0 2.2-1.3 3.4-3.4 3.4v-2c1 0 1.4-.4 1.4-1.4V15c0-1.4.7-2.4 1.9-3-1.2-.6-1.9-1.6-1.9-3V6.4c0-1-.4-1.4-1.4-1.4V3z"/></g><text class="s" x="101" y="299.6" font-size="13" fill="#d4d4d8">REST API</text></g>
      <g><rect x="180" y="282" width="101" height="26" rx="6" fill="#181c22" stroke="#ffffff" stroke-opacity="0.09"/><g transform="translate(192.28 288.00) scale(0.5833)" fill="#4DB33D"><path d="M17.193 9.555c-1.264-5.58-4.252-7.414-4.573-8.115-.28-.394-.53-.954-.735-1.44-.036.495-.055.685-.523 1.184-.723.566-4.438 3.682-4.74 10.02-.282 5.912 4.27 9.435 4.888 9.884l.07.05A73.49 73.49 0 0111.91 24h.481c.114-1.032.284-2.056.51-3.07.417-.296.604-.463.85-.693a11.342 11.342 0 003.639-8.464c.01-.814-.103-1.662-.197-2.218zm-5.336 8.195s0-8.291.275-8.29c.213 0 .49 10.695.49 10.695-.381-.045-.765-1.76-.765-2.405z"/></g><text class="s" x="213" y="299.6" font-size="13" fill="#d4d4d8">MongoDB</text></g>
      <g><rect x="289" y="282" width="91" height="26" rx="6" fill="#181c22" stroke="#ffffff" stroke-opacity="0.09"/><g transform="translate(301.44 288.00) scale(0.5833)" fill="#D45C5C"><path d="M12 2c4.42 0 8 1.12 8 2.5S16.42 7 12 7 4 5.88 4 4.5 7.58 2 12 2zM4 7.6v3.9c0 1.38 3.58 2.5 8 2.5s8-1.12 8-2.5V7.6c-1.7 1-4.7 1.4-8 1.4s-6.3-.4-8-1.4zM4 14.1V18c0 1.38 3.58 2.5 8 2.5s8-1.12 8-2.5v-3.9c-1.7 1-4.7 1.4-8 1.4s-6.3-.4-8-1.4z"/></g><text class="s" x="322" y="299.6" font-size="13" fill="#d4d4d8">MSSQL</text></g>
      <g><rect x="388" y="282" width="78" height="26" rx="6" fill="#181c22" stroke="#ffffff" stroke-opacity="0.09"/><g transform="translate(400.20 288.00) scale(0.5833)" fill="#FF4438"><path d="M22.71 13.145c-1.66 2.092-3.452 4.483-7.038 4.483-3.203 0-4.397-2.825-4.48-5.12.701 1.484 2.073 2.685 4.214 2.63 4.117-.133 6.94-3.852 6.94-7.239 0-4.05-3.022-6.972-8.268-6.972-3.752 0-8.4 1.428-11.455 3.685C2.59 6.937 3.885 9.958 4.35 9.626c2.648-1.904 4.748-3.13 6.784-3.744C8.12 9.244.886 17.05 0 18.425c.1 1.261 1.66 4.648 2.424 4.648.232 0 .431-.133.664-.365a100.49 100.49 0 0 0 5.54-6.765c.222 3.104 1.748 6.898 6.014 6.898 3.819 0 7.604-2.756 9.33-8.965.2-.764-.73-1.361-1.261-.73zm-4.349-5.013c0 1.959-1.926 2.922-3.685 2.922-.941 0-1.664-.247-2.235-.568 1.051-1.592 2.092-3.225 3.21-4.973 1.972.334 2.71 1.43 2.71 2.619z"/></g><text class="s" x="421" y="299.6" font-size="13" fill="#d4d4d8">Redis</text></g>
      <g><rect x="474" y="282" width="78" height="26" rx="6" fill="#181c22" stroke="#ffffff" stroke-opacity="0.09"/><g transform="translate(486.35 288.00) scale(0.5833)" fill="#C9C9C9"><path d="M9.71 2.136a1.43 1.43 0 0 0-2.047 0h-.007a1.48 1.48 0 0 0-.421 1.042c0 .41.161.777.422 1.039l.007.007c.257.264.616.426 1.019.426.404 0 .766-.162 1.027-.426l.003-.007c.261-.262.421-.629.421-1.039 0-.408-.159-.777-.421-1.042H9.71zM8.683 22.295c.404 0 .766-.167 1.027-.429l.003-.008c.261-.261.421-.631.421-1.036 0-.41-.159-.778-.421-1.044H9.71a1.42 1.42 0 0 0-1.027-.432 1.4 1.4 0 0 0-1.02.432h-.007c-.26.266-.422.634-.422 1.044 0 .406.161.775.422 1.036l.007.008c.258.262.617.429 1.02.429zm7.89-4.462c.359-.096.683-.33.882-.684l.027-.052a1.47 1.47 0 0 0 .114-1.067 1.454 1.454 0 0 0-.675-.896l-.021-.014a1.425 1.425 0 0 0-1.078-.132c-.36.091-.684.335-.881.686-.2.349-.241.75-.146 1.119.099.363.33.691.675.896h.002c.346.203.737.239 1.101.144zm-6.405-7.342a2.083 2.083 0 0 0-1.485-.627c-.58 0-1.103.242-1.482.627-.378.385-.612.916-.612 1.507s.233 1.124.612 1.514a2.08 2.08 0 0 0 2.967 0c.379-.39.612-.923.612-1.514s-.233-1.122-.612-1.507zm-.835-2.51c.843.141 1.6.552 2.178 1.144h.004c.092.093.182.196.265.299l1.446-.851a3.176 3.176 0 0 1-.047-1.808 3.149 3.149 0 0 1 1.456-1.926l.025-.016a3.062 3.062 0 0 1 2.345-.306c.77.21 1.465.721 1.898 1.482v.002c.431.757.518 1.626.313 2.408a3.145 3.145 0 0 1-1.456 1.928l-.198.118h-.02a3.095 3.095 0 0 1-2.154.201 3.127 3.127 0 0 1-1.514-.944l-1.444.848a4.162 4.162 0 0 1 0 2.879l1.444.846c.413-.47.939-.789 1.514-.944a3.041 3.041 0 0 1 2.371.319l.048.023v.002a3.17 3.17 0 0 1 1.408 1.906 3.215 3.215 0 0 1-.313 2.405l-.026.053-.003-.005a3.147 3.147 0 0 1-1.867 1.436 3.096 3.096 0 0 1-2.371-.318v-.006a3.156 3.156 0 0 1-1.456-1.927 3.175 3.175 0 0 1 .047-1.805l-1.446-.848a3.905 3.905 0 0 1-.265.294l-.004.005a3.938 3.938 0 0 1-2.178 1.138v1.699a3.09 3.09 0 0 1 1.56.862l.002.004c.565.572.914 1.368.914 2.243 0 .873-.35 1.664-.914 2.239l-.002.009a3.1 3.1 0 0 1-2.21.931 3.1 3.1 0 0 1-2.206-.93h-.002v-.009a3.186 3.186 0 0 1-.916-2.239c0-.875.35-1.672.916-2.243v-.004h.002a3.1 3.1 0 0 1 1.558-.862v-1.699a3.926 3.926 0 0 1-2.176-1.138l-.006-.005a4.098 4.098 0 0 1-1.173-2.874c0-1.122.452-2.136 1.173-2.872h.006a3.947 3.947 0 0 1 2.176-1.144V6.289a3.137 3.137 0 0 1-1.558-.864h-.002v-.004a3.192 3.192 0 0 1-.916-2.243c0-.871.35-1.669.916-2.243l.002-.002A3.084 3.084 0 0 1 8.683 0c.861 0 1.641.355 2.21.932v.002h.002c.565.574.914 1.372.914 2.243 0 .876-.35 1.667-.914 2.243l-.002.005a3.142 3.142 0 0 1-1.56.864v1.692zm8.121-1.129l-.012-.019a1.452 1.452 0 0 0-.87-.668 1.43 1.43 0 0 0-1.103.146h.002c-.347.2-.58.529-.677.896-.095.365-.054.768.146 1.119l.007.009c.2.347.519.579.874.673.357.103.755.059 1.098-.144l.019-.009a1.47 1.47 0 0 0 .657-.885 1.493 1.493 0 0 0-.141-1.118"/></g><text class="s" x="507" y="299.6" font-size="13" fill="#d4d4d8">Kafka</text></g>
      <g><rect x="68" y="316" width="96" height="26" rx="6" fill="#181c22" stroke="#ffffff" stroke-opacity="0.09"/><g transform="translate(80.00 322.00) scale(0.5833)" fill="#FF6C37"><path d="M13.527.099C6.955-.744.942 3.9.099 10.473c-.843 6.572 3.8 12.584 10.373 13.428 6.573.843 12.587-3.801 13.428-10.374C24.744 6.955 20.101.943 13.527.099zm2.471 7.485a.855.855 0 0 0-.593.25l-4.453 4.453-.307-.307-.643-.643c4.389-4.376 5.18-4.418 5.996-3.753zm-4.863 4.861l4.44-4.44a.62.62 0 1 1 .847.903l-4.699 4.125-.588-.588zm.33.694l-1.1.238a.06.06 0 0 1-.067-.032.06.06 0 0 1 .01-.073l.645-.645.512.512zm-2.803-.459l1.172-1.172.879.878-1.979.426a.074.074 0 0 1-.085-.039.072.072 0 0 1 .013-.093zm-3.646 6.058a.076.076 0 0 1-.069-.083.077.077 0 0 1 .022-.046h.002l.946-.946 1.222 1.222-2.123-.147zm2.425-1.256a.228.228 0 0 0-.117.256l.203.865a.125.125 0 0 1-.211.117h-.003l-.934-.934-.294-.295 3.762-3.758 1.82-.393.874.874c-1.255 1.102-2.971 2.201-5.1 3.268zm5.279-3.428h-.002l-.839-.839 4.699-4.125a.952.952 0 0 0 .119-.127c-.148 1.345-2.029 3.245-3.977 5.091zm3.657-6.46l-.003-.002a1.822 1.822 0 0 1 2.459-2.684l-1.61 1.613a.119.119 0 0 0 0 .169l1.247 1.247a1.817 1.817 0 0 1-2.093-.343zm2.578 0a1.714 1.714 0 0 1-.271.218h-.001l-1.207-1.207 1.533-1.533c.661.72.637 1.832-.054 2.522zM18.855 6.05a.143.143 0 0 0-.053.157.416.416 0 0 1-.053.45.14.14 0 0 0 .023.197.141.141 0 0 0 .084.03.14.14 0 0 0 .106-.05.691.691 0 0 0 .087-.751.138.138 0 0 0-.194-.033z"/></g><text class="s" x="101" y="333.6" font-size="13" fill="#d4d4d8">Postman</text></g>
    </g>
    <g><rect x="612" y="232" width="544" height="132" rx="12" fill="#10131a" stroke="#ffffff" stroke-opacity="0.08"/>
      <rect x="612" y="246" width="3" height="104" rx="1.5" fill="#f59e0b"/>
      <text class="m" x="636" y="262" font-size="10.5" letter-spacing="2.4" fill="#f59e0b">CLOUD &amp; DEVOPS</text>
      <text class="m" x="1134" y="262" font-size="10.5" letter-spacing="1.5" text-anchor="end" fill="#4b5563">04</text>
      <g><rect x="636" y="282" width="74" height="26" rx="6" fill="#181c22" stroke="#ffffff" stroke-opacity="0.09"/><g transform="translate(648.00 288.00) scale(0.5833)" fill="#FFB13B"><path d="M6.5 19a4.5 4.5 0 0 1-.42-8.98 6 6 0 0 1 11.63-1.83A4.4 4.4 0 0 1 17.5 19h-11z"/></g><text class="s" x="669" y="299.6" font-size="13" fill="#d4d4d8">AWS</text></g>
      <g><rect x="718" y="282" width="78" height="26" rx="6" fill="#181c22" stroke="#ffffff" stroke-opacity="0.09"/><g transform="translate(729.60 288.00) scale(0.5833)" fill="#FFB13B"><path d="M6.5 19a4.5 4.5 0 0 1-.42-8.98 6 6 0 0 1 11.63-1.83A4.4 4.4 0 0 1 17.5 19h-11z"/></g><text class="s" x="751" y="299.6" font-size="13" fill="#d4d4d8">Azure</text></g>
      <g><rect x="804" y="282" width="85" height="26" rx="6" fill="#181c22" stroke="#ffffff" stroke-opacity="0.09"/><g transform="translate(815.75 288.00) scale(0.5833)" fill="#2496ED"><path d="M13.983 11.078h2.119a.186.186 0 00.186-.185V9.006a.186.186 0 00-.186-.186h-2.119a.185.185 0 00-.185.185v1.888c0 .102.083.185.185.185m-2.954-5.43h2.118a.186.186 0 00.186-.186V3.574a.186.186 0 00-.186-.185h-2.118a.185.185 0 00-.185.185v1.888c0 .102.082.185.185.185m0 2.716h2.118a.187.187 0 00.186-.186V6.29a.186.186 0 00-.186-.185h-2.118a.185.185 0 00-.185.185v1.887c0 .102.082.185.185.186m-2.93 0h2.12a.186.186 0 00.184-.186V6.29a.185.185 0 00-.185-.185H8.1a.185.185 0 00-.185.185v1.887c0 .102.083.185.185.186m-2.964 0h2.119a.186.186 0 00.185-.186V6.29a.185.185 0 00-.185-.185H5.136a.186.186 0 00-.186.185v1.887c0 .102.084.185.186.186m5.893 2.715h2.118a.186.186 0 00.186-.185V9.006a.186.186 0 00-.186-.186h-2.118a.185.185 0 00-.185.185v1.888c0 .102.082.185.185.185m-2.93 0h2.12a.185.185 0 00.184-.185V9.006a.185.185 0 00-.184-.186h-2.12a.185.185 0 00-.184.185v1.888c0 .102.083.185.185.185m-2.964 0h2.119a.185.185 0 00.185-.185V9.006a.185.185 0 00-.184-.186h-2.12a.186.186 0 00-.186.186v1.887c0 .102.084.185.186.185m-2.92 0h2.12a.185.185 0 00.184-.185V9.006a.185.185 0 00-.184-.186h-2.12a.185.185 0 00-.184.185v1.888c0 .102.082.185.185.185M23.763 9.89c-.065-.051-.672-.51-1.954-.51-.338.001-.676.03-1.01.087-.248-1.7-1.653-2.53-1.716-2.566l-.344-.199-.226.327c-.284.438-.49.922-.612 1.43-.23.97-.09 1.882.403 2.661-.595.332-1.55.413-1.744.42H.751a.751.751 0 00-.75.748 11.376 11.376 0 00.692 4.062c.545 1.428 1.355 2.48 2.41 3.124 1.18.723 3.1 1.137 5.275 1.137.983.003 1.963-.086 2.93-.266a12.248 12.248 0 003.823-1.389c.98-.567 1.86-1.288 2.61-2.136 1.252-1.418 1.998-2.997 2.553-4.4h.221c1.372 0 2.215-.549 2.68-1.009.309-.293.55-.65.707-1.046l.098-.288Z"/></g><text class="s" x="837" y="299.6" font-size="13" fill="#d4d4d8">Docker</text></g>
      <g><rect x="897" y="282" width="84" height="26" rx="6" fill="#181c22" stroke="#ffffff" stroke-opacity="0.09"/><g transform="translate(908.79 288.00) scale(0.5833)" fill="#E6E6E6"><path d="M12 .297c-6.63 0-12 5.373-12 12 0 5.303 3.438 9.8 8.205 11.385.6.113.82-.258.82-.577 0-.285-.01-1.04-.015-2.04-3.338.724-4.042-1.61-4.042-1.61C4.422 18.07 3.633 17.7 3.633 17.7c-1.087-.744.084-.729.084-.729 1.205.084 1.838 1.236 1.838 1.236 1.07 1.835 2.809 1.305 3.495.998.108-.776.417-1.305.76-1.605-2.665-.3-5.466-1.332-5.466-5.93 0-1.31.465-2.38 1.235-3.22-.135-.303-.54-1.523.105-3.176 0 0 1.005-.322 3.3 1.23.96-.267 1.98-.399 3-.405 1.02.006 2.04.138 3 .405 2.28-1.552 3.285-1.23 3.285-1.23.645 1.653.24 2.873.12 3.176.765.84 1.23 1.91 1.23 3.22 0 4.61-2.805 5.625-5.475 5.92.42.36.81 1.096.81 2.22 0 1.606-.015 2.896-.015 3.286 0 .315.21.69.825.57C20.565 22.092 24 17.592 24 12.297c0-6.627-5.373-12-12-12"/></g><text class="s" x="930" y="299.6" font-size="13" fill="#d4d4d8">GitHub</text></g>
      <g><rect x="989" y="282" width="61" height="26" rx="6" fill="#181c22" stroke="#ffffff" stroke-opacity="0.09"/><g transform="translate(1000.53 288.00) scale(0.5833)" fill="#F05032"><path d="M13.09 23.549a1.54 1.54 0 0 1-2.18 0L.451 13.089a1.54 1.54 0 0 1 0-2.179l7.191-7.19 2.733 2.733a1.85 1.85 0 0 0 .964 2.326v6.66a1.849 1.849 0 1 0 1.54 0V8.957l2.508 2.508a1.85 1.85 0 1 0 1.09-1.09l-2.634-2.634a1.85 1.85 0 0 0-2.378-2.377L8.73 2.63 10.91.451a1.54 1.54 0 0 1 2.179 0l10.459 10.46a1.54 1.54 0 0 1 0 2.179z"/></g><text class="s" x="1022" y="299.6" font-size="13" fill="#d4d4d8">Git</text></g>
      <g><rect x="636" y="316" width="82" height="26" rx="6" fill="#181c22" stroke="#ffffff" stroke-opacity="0.09"/><g transform="translate(648.00 322.00) scale(0.5833)" fill="#E6E6E6"><path d="m12 1.608 12 20.784H0Z"/></g><text class="s" x="669" y="333.6" font-size="13" fill="#d4d4d8">Vercel</text></g>
    </g>
  </g>
  <rect x="0.5" y="0.5" width="1199" height="395" rx="16" fill="none" stroke="#ffffff" stroke-opacity="0.10"/>
</svg>
